<svg t="1578139856212" class="icon" viewBox="0 0 1024 1024" version="1.1" xmlns="http://www.w3.org/2000/svg" p-id="7000"
                            width="200" height="200">
                            <path
                                d="M819.2 170.6496a204.8 204.8 0 0 1 204.8 204.8V819.2a204.8 204.8 0 0 1-204.8 204.8H375.4496a204.8 204.8 0 0 1-204.8-204.8V375.4496a204.8 204.8 0 0 1 204.8-204.8H819.2z"
                                fill="#FF8800" fill-opacity=".2" p-id="7001"></path>
                            <path
                                d="M648.5504 0a204.8 204.8 0 0 1 204.8 204.8v443.7504a204.8 204.8 0 0 1-204.8 204.8H204.8a204.8 204.8 0 0 1-204.8-204.8V204.8a204.8 204.8 0 0 1 204.8-204.8h443.7504z"
                                fill="#FF8800" p-id="7002"></path>
                        </svg>